<svg width="180" height="40" viewBox="0 0 180 40" fill="none" xmlns="http://www.w3.org/2000/svg">
<rect x="1" y="1" width="178" height="38" fill="white" stroke="#0047CC" stroke-width="2"/>
<path d="M153.108 13.2V10H156.308V13.2H153.108ZM156.308 16.4V13.2H159.508V16.4H156.308ZM138.708 22.8V19.6H159.508V16.4H162.708V19.6H165.908V22.8H162.708V26H159.508V22.8H138.708ZM159.508 26V29.2H156.308V26H159.508ZM153.108 32.4V29.2H156.308V32.4H153.108Z" fill="#0047CC"/>
<path d="M26.4 9.6V12H16.8V9.6H26.4ZM26.4 15.6V12H28.8V15.6H26.4ZM14.4 16.8V12H16.8V16.8H14.4ZM16.8 19.2V16.8H21.6V19.2H16.8ZM21.6 21.6V19.2H26.4V21.6H21.6ZM28.8 27.6H26.4V21.6H28.8V27.6ZM14.4 27.6V24H16.8V27.6H14.4ZM16.8 30V27.6H26.4V30H16.8ZM38.4644 12V9.6H46.8644V12H38.4644ZM36.0644 14.4V12H38.4644V14.4H36.0644ZM46.8644 14.4V12H49.2644V14.4H46.8644ZM33.6644 25.2V14.4H36.0644V25.2H33.6644ZM49.2644 16.8V14.4H51.6644V16.8H49.2644ZM49.2644 25.2V22.8H51.6644V25.2H49.2644ZM46.8644 27.6V25.2H49.2644V27.6H46.8644ZM36.0644 27.6V25.2H38.4644V27.6H36.0644ZM38.4644 30V27.6H46.8644V30H38.4644ZM70.1777 9.6V12H60.5777V9.6H70.1777ZM60.5777 12V14.4H58.1777V12H60.5777ZM70.1777 14.4V12H72.5777V14.4H70.1777ZM55.7777 25.2V14.4H58.1777V25.2H55.7777ZM72.5777 25.2V14.4H74.9777V25.2H72.5777ZM70.1777 27.6V25.2H72.5777V27.6H70.1777ZM58.1777 27.6V25.2H60.5777V27.6H58.1777ZM60.5777 30V27.6H70.1777V30H60.5777ZM80.0709 30V9.6H92.0709V12H82.4709V20.4H92.0709V22.8H82.4709V30H80.0709ZM94.4709 20.4H92.0709V12H94.4709V20.4ZM99.0787 30V9.6H111.079V12H101.479V19.2H111.079V21.6H108.679V24H106.279V21.6H101.479V30H99.0787ZM113.479 19.2H111.079V12H113.479V19.2ZM108.679 27.6V24H111.079V27.6H108.679ZM111.079 30V27.6H113.479V30H111.079ZM118.555 30V9.6H120.955V30H118.555Z" fill="#0047CC"/>
</svg>
