<svg width="40" height="40" viewBox="0 0 40 40" fill="none" xmlns="http://www.w3.org/2000/svg">
<rect x="1" y="1" width="38" height="38" fill="white" stroke="#0047CC" stroke-width="2"/>
<path d="M8.79329 11.7429V6.94285H11.9933V11.7429H8.79329ZM27.9933 11.7429V6.94285H31.1933V11.7429H27.9933ZM24.7933 14.9429V11.7429H27.9933V14.9429H24.7933ZM11.9933 14.9429V11.7429H15.1933V14.9429H11.9933ZM15.1933 18.1429V14.9429H18.3933V18.1429H15.1933ZM21.5933 18.1429V14.9429H24.7933V18.1429H21.5933ZM21.5933 18.1429V22.9429H18.3933V18.1429H21.5933ZM18.3933 22.9429V26.1429H15.1933V22.9429H18.3933ZM21.5933 26.1429V22.9429H24.7933V26.1429H21.5933ZM24.7933 29.3429V26.1429H27.9933V29.3429H24.7933ZM15.1933 26.1429V29.3429H11.9933V26.1429H15.1933ZM27.9933 34.1429V29.3429H31.1933V34.1429H27.9933ZM8.79329 34.1429V29.3429H11.9933V34.1429H8.79329Z" fill="#0047CC"/>
</svg>
