<svg width="56" height="56" viewBox="0 0 56 56" fill="none" xmlns="http://www.w3.org/2000/svg">
<rect x="1" y="1" width="54" height="54" fill="white" stroke="#0047CC" stroke-width="2"/>
<path d="M15.3924 18.8V13.4H18.9924V18.8H15.3924ZM36.9924 18.8V13.4H40.5924V18.8H36.9924ZM33.3924 22.4V18.8H36.9924V22.4H33.3924ZM18.9924 22.4V18.8H22.5924V22.4H18.9924ZM22.5924 26V22.4H26.1924V26H22.5924ZM29.7924 26V22.4H33.3924V26H29.7924ZM29.7924 26V31.4H26.1924V26H29.7924ZM26.1924 31.4V35H22.5924V31.4H26.1924ZM29.7924 35V31.4H33.3924V35H29.7924ZM33.3924 38.6V35H36.9924V38.6H33.3924ZM22.5924 35V38.6H18.9924V35H22.5924ZM36.9924 44V38.6H40.5924V44H36.9924ZM15.3924 44V38.6H18.9924V44H15.3924Z" fill="#0047CC"/>
</svg>
